<?xml version="1.0" encoding="UTF-8" standalone="no"?><!DOCTYPE svg PUBLIC "-//W3C//DTD SVG 1.1//EN" "http://www.w3.org/Graphics/SVG/1.1/DTD/svg11.dtd"><svg width="100%" height="100%" viewBox="0 0 299 501" version="1.1" xmlns="http://www.w3.org/2000/svg" xmlns:xlink="http://www.w3.org/1999/xlink" xml:space="preserve" xmlns:serif="http://www.serif.com/" style="fill-rule:evenodd;clip-rule:evenodd;stroke-linejoin:round;stroke-miterlimit:2;"><g><path d="M298.5,471c0,16 -13.1,29.1 -29.1,29.1l-240.3,0c-16,0 -29.1,-13.1 -29.1,-29.1l0,-441.9c0,-16 13.1,-29.1 29.1,-29.1l240.4,0c16,0 29.1,13.1 29.1,29.1l0,441.9l-0.1,0Z" style="fill:#00aeaa;"/><path d="M23.7,45.1l0,-20.8l17.9,0l0,4.8l-10.4,0l0,3.8l8.3,0l0,4.9l-8.3,0l0,7.3l-7.5,0Z" style="fill:#fff;fill-rule:nonzero;"/><path d="M40.2,45.1l8.2,-20.9l7.7,0l8.2,20.9l-7.5,0l-0.9,-2.8l-7.5,0l-0.9,2.8l-7.3,0Zm12,-14.5l-2.3,7.5l4.8,0l-2.5,-7.5Z" style="fill:#fff;fill-rule:nonzero;"/><path d="M73.1,37.9l0,7.3l-7.5,0l0,-20.9l10.8,0c7.7,0 10.2,1.9 10.2,5.9c0,2.4 -1.2,4.4 -3.9,5.1c2.4,0.8 3.9,1.3 3.9,5.5c0,2.7 -0.1,3.7 0.8,3.7l0,0.6l-7.6,0c-0.2,-0.5 -0.4,-1.8 -0.4,-3.7c0,-2.7 -0.5,-3.6 -4,-3.6l-2.3,0l0,0.1Zm0,-4.6l3,0c2.3,0 3.6,-0.5 3.6,-2c0,-1.5 -1.3,-2.2 -3,-2.2l-3.5,0l0,4.2l-0.1,0Z" style="fill:#fff;fill-rule:nonzero;"/><path d="M89.7,45.1l0,-20.8l9.1,0l4,13l4.1,-13l9.1,0l0,20.8l-6.8,0l0,-6.3l0.1,-3.3l0.4,-3.8l-0.1,0l-4.1,13.4l-5.3,0l-4.2,-13.4l0.3,3.1l0.2,3.3l0,7l-6.8,0Z" style="fill:#fff;fill-rule:nonzero;"/><path d="M119.9,45.1l0,-20.8l18.8,0l0,4.8l-11.2,0l0,3l9.4,0l0,4.9l-9.4,0l0,3.3l11.6,0l0,4.8l-19.2,0Z" style="fill:#fff;fill-rule:nonzero;"/><path d="M141.8,45.1l0,-20.8l10.1,0c7.4,0 12,3.1 12,10c0,7.9 -4.8,10.9 -12.2,10.9l-9.9,0l0,-0.1Zm7.6,-4.8l1.6,0c3.5,0 5.4,-1.7 5.4,-5.6c0,-4.3 -1.6,-5.5 -5.6,-5.5l-1.4,0l0,11.1Z" style="fill:#fff;fill-rule:nonzero;"/><path d="M30.8,69.4l0,7.3l-7.5,0l0,-20.9l10.8,0c7.7,0 10.2,1.9 10.2,5.9c0,2.4 -1.2,4.4 -3.9,5.1c2.4,0.8 3.9,1.3 3.9,5.5c0,2.7 -0.1,3.7 0.8,3.7l0,0.6l-7.6,0c-0.2,-0.5 -0.4,-1.8 -0.4,-3.7c0,-2.7 -0.5,-3.6 -4,-3.6l-2.3,0l0,0.1Zm0,-4.6l3,0c2.3,0 3.6,-0.5 3.6,-2c0,-1.5 -1.3,-2.2 -3,-2.2l-3.5,0l0,4.2l-0.1,0Z" style="fill:#fff;fill-rule:nonzero;"/><path d="M48.1,76.7l0,-20.9l18.7,0l0,4.8l-11.2,0l0,3l9.5,0l0,4.9l-9.5,0l0,3.3l11.6,0l0,4.9l-19.1,0Z" style="fill:#fff;fill-rule:nonzero;"/><path d="M81.8,61.8c-0.1,-0.7 -0.5,-1.2 -1.1,-1.4c-0.5,-0.3 -1.2,-0.4 -1.9,-0.4c-1.7,0 -2.4,0.4 -2.4,1.2c0,3.1 13.2,1.2 13.2,8.8c0,4.8 -4.4,7.2 -10.8,7.2c-6.1,0 -10,-3.2 -10.2,-7l7.2,0c0.2,0.7 0.6,1.3 1.2,1.7c0.6,0.3 1.4,0.5 2.1,0.5c1.9,0 3.1,-0.5 3.1,-1.5c0,-3.2 -13.2,-1 -13.2,-9c0,-4.4 4.2,-6.7 10,-6.7c6.4,0 9.3,3 9.8,6.6l-7,0Z" style="fill:#fff;fill-rule:nonzero;"/><path d="M91.8,76.7l0,-20.9l11.1,0c6.6,0 9.8,2.8 9.8,7c0,4.5 -2.9,7.3 -9.5,7.3l-3.8,0l0,6.5l-7.6,0l0,0.1Zm10.7,-11.4c1.8,0 3,-0.6 3,-2.4c0,-1.9 -2.4,-2.2 -4,-2.2l-2.1,0l0,4.6l3.1,0Z" style="fill:#fff;fill-rule:nonzero;"/><path d="M138.7,66.1c0,7.1 -5.3,11.1 -12.1,11.1c-7.2,0 -12,-4.1 -12,-11.2c0,-6.6 4.9,-10.8 12,-10.8c8.2,0 12.1,5.4 12.1,10.9m-16.6,0c0,2.7 0.9,6 4.5,6c3.3,0 4.5,-2.6 4.5,-6c0,-2.8 -1.3,-5.9 -4.6,-5.8c-3.4,0 -4.4,3.2 -4.4,5.8" style="fill:#fff;fill-rule:nonzero;"/><path d="M156.8,67.2l-0.2,-4.8l0,-6.6l7.2,0l0,20.9l-7.1,0l-8.2,-11.4l0.3,4.7l0,6.7l-7.2,0l0,-20.9l7,0l8.2,11.4Z" style="fill:#fff;fill-rule:nonzero;"/><path d="M179.3,61.8c-0.1,-0.7 -0.5,-1.2 -1.1,-1.4c-0.5,-0.3 -1.2,-0.4 -1.9,-0.4c-1.7,0 -2.4,0.4 -2.4,1.2c0,3.1 13.2,1.2 13.2,8.8c0,4.8 -4.4,7.2 -10.8,7.2c-6.1,0 -10,-3.2 -10.2,-7l7.2,0c0.2,0.7 0.6,1.3 1.2,1.7c0.6,0.3 1.4,0.5 2.1,0.5c1.9,0 3.1,-0.5 3.1,-1.5c0,-3.2 -13.2,-1 -13.2,-9c0,-4.4 4.2,-6.7 10,-6.7c6.4,0 9.3,3 9.8,6.6l-7,0Z" style="fill:#fff;fill-rule:nonzero;"/><rect x="189.6" y="55.8" width="7.5" height="20.9" style="fill:#fff;"/><path d="M200.8,76.7l0,-20.9l11,0c5.2,0 9.3,1.1 9.3,5.3c0,2.1 -1.5,3.7 -3,4.5c2.5,0.6 3.8,2.5 3.8,4.8c0,4.7 -3.9,6.3 -9.9,6.3l-11.2,0Zm7.5,-16.1l0,3.5l3.1,0c1.5,0 2.6,-0.6 2.6,-1.8c0,-1.6 -1.5,-1.7 -3.1,-1.7l-2.6,0Zm0,7.3l0,3.9l3.3,0c1.8,0 3.3,-0.3 3.3,-1.9c0,-1.8 -1.8,-1.9 -4.1,-1.9l-2.5,0l0,-0.1Z" style="fill:#fff;fill-rule:nonzero;"/><path d="M225,76.7l0,-20.9l7.6,0l0,16l10.3,0l0,4.9l-17.9,0Z" style="fill:#fff;fill-rule:nonzero;"/><path d="M255.6,76.7l-7.6,0l0,-7.6l-8.5,-13.3l8.4,0l4,7l3.9,-7l8.3,0l-8.5,13.1l0,7.8Z" style="fill:#fff;fill-rule:nonzero;"/><path d="M68.3,151.3l-1.2,-6.5c-6.8,6.3 -13.7,8.2 -22.7,8.2c-11.4,0 -21.5,-5.6 -21.5,-18.2c0,-27.4 43,-15 43,-26.3c0,-4.4 -5.3,-5 -7.8,-5c-3.3,0 -7.8,0.7 -8.4,5.9l-23,0c0,-12.8 9.1,-20.3 33,-20.3c28.6,0 30.3,10.6 30.3,25l0,28.2c0,3.5 0.1,5.2 3.2,7.7l0,1.2l-24.9,0l0,0.1Zm-2.4,-26.8c-7.8,3.8 -18.2,2 -18.2,9.8c0,3 2.9,5.1 7.6,5.1c8.4,0 11.2,-6.6 10.6,-14.9" style="fill:#fff;fill-rule:nonzero;"/><path d="M118.5,132.5c0,2.4 0.9,4.3 2.5,5.5c1.5,1.2 3.6,1.8 5.9,1.8c3.7,0 7.6,-1.2 7.6,-5.4c0,-9.7 -37,-2 -37,-25.4c0,-15.4 16,-19.9 28.6,-19.9c13.1,0 28.6,3 30,19l-21.8,0c-0.2,-2 -1,-3.3 -2.3,-4.4c-1.3,-1 -3,-1.5 -4.8,-1.5c-4.2,0 -6.8,1.3 -6.8,4.3c0,8.4 38.1,2.8 38.1,25.3c0,12.6 -10.4,21.1 -32.5,21.1c-13.8,0 -29,-4.3 -30.3,-20.5l22.8,0l0,0.1Z" style="fill:#fff;fill-rule:nonzero;"/><path d="M205.1,113.9c-0.1,-2.7 -1,-4.7 -2.5,-6.2c-1.5,-1.6 -3.6,-2.4 -6.2,-2.4c-9,0 -10.5,9.3 -10.5,16.5c0,9.1 3.5,15.1 10.5,15.1c6.2,0 8.6,-4.3 9.3,-9l24.2,0c-1,9.1 -5.2,15.4 -11.3,19.5c-6,3.9 -13.8,5.6 -22.2,5.6c-19.5,0 -34.5,-10.9 -34.5,-31.3c0,-20.6 14.5,-32.5 34.5,-32.5c16.1,0 31.3,6.9 33.1,24.8l-24.4,0l0,-0.1Z" style="fill:#fff;fill-rule:nonzero;"/><path d="M40.6,178.3c-0.4,-1.4 -1.3,-4.1 -5.7,-4.1c-2.6,0 -6.4,1.6 -6.4,8.2c0,4.2 1.8,8 6.4,8c3,0 5.1,-1.5 5.7,-4.4l5.4,0c-1.1,5.1 -4.8,8.7 -11.3,8.7c-6.9,0 -11.9,-4.2 -11.9,-12.4c0,-8.2 5.2,-12.4 11.9,-12.4c7.8,0 10.9,4.9 11.2,8.3l-5.3,0l0,0.1Z" style="fill:#fff;fill-rule:nonzero;"/><path d="M68.8,174.7l-13.8,0l0,5l12.6,0l0,4.2l-12.6,0l0,6.1l14.4,0l0,4.1l-19.7,0l0,-23.6l19.1,0l0,4.2Z" style="fill:#fff;fill-rule:nonzero;"/><path d="M73.3,170.5l13.1,0c6.9,0 8.2,4.6 8.2,6.7c0,2.6 -1.4,4.8 -4,5.6c2.1,0.9 3.3,1.6 3.3,6c0,3.4 0,4.3 1.2,4.7l0,0.6l-6,0c-0.4,-1.1 -0.6,-2.3 -0.6,-4.8c0,-3.2 -0.2,-4.5 -4.2,-4.5l-5.6,0l0,9.2l-5.3,0l0,-23.5l-0.1,0Zm11.6,10.4c2.8,0 4.2,-0.9 4.2,-3.2c0,-1.2 -0.6,-3.1 -3.8,-3.1l-6.8,0l0,6.3l6.4,0Z" style="fill:#fff;fill-rule:nonzero;"/><path d="M110.1,194.1l-5.4,0l0,-19.4l-7.8,0l0,-4.2l21.1,0l0,4.2l-7.9,0l0,19.4Z" style="fill:#fff;fill-rule:nonzero;"/><rect x="120.5" y="170.6" width="5.4" height="23.6" style="fill:#fff;"/><path d="M136.1,194.1l-5.4,0l0,-23.6l18.5,0l0,4.2l-13.1,0l0,5.3l11.5,0l0,4.2l-11.5,0l0,9.9Z" style="fill:#fff;fill-rule:nonzero;"/><rect x="151.9" y="170.6" width="5.4" height="23.6" style="fill:#fff;"/><path d="M181.2,174.7l-13.8,0l0,5l12.7,0l0,4.2l-12.7,0l0,6.1l14.4,0l0,4.1l-19.7,0l0,-23.6l19.1,0l0,4.2Z" style="fill:#fff;fill-rule:nonzero;"/><path d="M185.7,170.5l11.5,0c8.7,0 10.6,6.8 10.6,11.2c0,5.1 -2.2,12.3 -10.8,12.3l-11.3,0l0,-23.5Zm5.3,19.6l5.3,0c4.4,0 5.9,-4 5.9,-7.9c0,-7 -3.6,-7.5 -6,-7.5l-5.2,0l0,15.4Z" style="fill:#fff;fill-rule:nonzero;"/><path d="M27.6,226.1l-4.6,0l7.5,-19.1l5.1,0l7.4,19.1l-4.8,0l-1.3,-3.9l-7.7,0l-1.6,3.9Zm2.6,-7.2l5.3,0l-2.6,-7.6l-0.1,0l-2.6,7.6Z" style="fill:#fff;fill-rule:nonzero;"/><path d="M48.2,220.2c0,1.1 0.6,3.1 4.4,3.1c2.1,0 4.4,-0.5 4.4,-2.5c0,-1.5 -1.6,-1.9 -3.8,-2.4l-2.3,-0.5c-3.4,-0.7 -6.7,-1.4 -6.7,-5.6c0,-2.1 1.3,-5.9 8.1,-5.9c6.4,0 8.2,3.8 8.2,6.2l-4.2,0c-0.1,-0.9 -0.5,-2.9 -4.3,-2.9c-1.7,0 -3.7,0.6 -3.7,2.3c0,1.5 1.3,1.8 2.2,2l5.1,1.1c2.9,0.6 5.5,1.7 5.5,5.1c0,5.7 -6.4,6.3 -8.3,6.3c-7.7,0 -9,-4 -9,-6.4l4.4,0l0,0.1Z" style="fill:#fff;fill-rule:nonzero;"/><path d="M77.7,213.3c-0.4,-1.1 -1,-3.3 -4.6,-3.3c-2.1,0 -5.2,1.3 -5.2,6.7c0,3.4 1.5,6.5 5.2,6.5c2.4,0 4.1,-1.2 4.6,-3.6l4.4,0c-0.9,4.2 -3.9,7.1 -9.1,7.1c-5.6,0 -9.6,-3.4 -9.6,-10c0,-6.7 4.2,-10.1 9.7,-10.1c6.3,0 8.8,3.9 9.1,6.8l-4.5,0l0,-0.1Z" style="fill:#fff;fill-rule:nonzero;"/><rect x="84.4" y="215.1" width="8.2" height="3.5" style="fill:#fff;"/><path d="M98.4,226.1l-4.6,0l7.5,-19.1l5.1,0l7.4,19.1l-4.8,0l-1.3,-3.9l-7.7,0l-1.6,3.9Zm2.6,-7.2l5.3,0l-2.6,-7.6l-2.7,7.6Z" style="fill:#fff;fill-rule:nonzero;"/><path d="M132.3,227.5l-2.5,-2.2c-2,1.1 -4.2,1.3 -5.4,1.3c-2.8,0 -10.1,-1.1 -10.1,-10c0,-9 7.3,-10 10.1,-10c2.8,0 10.1,1.1 10.1,10c0,3.1 -0.9,5.3 -2.2,6.8l2.3,2l-2.3,2.1Zm-5.3,-8.7l2.2,1.9c0.6,-1 1,-2.3 1,-4.1c0,-5.3 -3.3,-6.7 -5.7,-6.7c-2.4,0 -5.7,1.3 -5.7,6.7c0,5.3 3.3,6.7 5.7,6.7c0.7,0 1.6,-0.1 2.4,-0.5l-2.2,-1.9l2.3,-2.1Z" style="fill:#fff;fill-rule:nonzero;"/><path d="M154.7,219.4c0,5 -3.3,7.2 -8.6,7.2c-1.9,0 -4.8,-0.4 -6.7,-2.3c-1.1,-1.2 -1.6,-2.7 -1.6,-4.6l0,-12.7l4.5,0l0,12.4c0,2.7 1.7,3.8 3.7,3.8c3,0 4.2,-1.3 4.2,-3.6l0,-12.6l4.5,0l0,12.4Z" style="fill:#fff;fill-rule:nonzero;"/><path d="M160.7,226.1l-4.6,0l7.5,-19.1l5.1,0l7.4,19.1l-4.8,0l-1.3,-3.9l-7.7,0l-1.6,3.9Zm2.7,-7.2l5.3,0l-2.6,-7.6l-0.1,0l-2.6,7.6Z" style="fill:#fff;fill-rule:nonzero;"/><rect x="179" y="222.2" width="4.4" height="3.9" style="fill:#fff;"/><path d="M195.7,206.5c2.8,0 10.1,1.1 10.1,10c0,8.9 -7.3,10 -10.1,10c-2.8,0 -10.1,-1.1 -10.1,-10c0,-8.9 7.3,-10 10.1,-10m0,16.7c2.4,0 5.7,-1.3 5.7,-6.7c0,-5.3 -3.3,-6.7 -5.7,-6.7c-2.4,0 -5.7,1.3 -5.7,6.7c0,5.4 3.3,6.7 5.7,6.7" style="fill:#fff;fill-rule:nonzero;"/><path d="M209,207l10.6,0c5.6,0 6.6,3.7 6.6,5.4c0,2.1 -1.2,3.9 -3.2,4.5c1.7,0.7 2.7,1.3 2.7,4.8c0,2.8 0,3.5 0.9,3.8l0,0.5l-4.9,0c-0.3,-0.9 -0.5,-1.9 -0.5,-3.9c0,-2.6 -0.2,-3.6 -3.4,-3.6l-4.5,0l0,7.5l-4.3,0l0,-19Zm9.4,8.4c2.3,0 3.4,-0.7 3.4,-2.6c0,-1 -0.5,-2.5 -3.1,-2.5l-5.5,0l0,5.1l5.2,0Z" style="fill:#fff;fill-rule:nonzero;"/><path d="M239.4,215.8l8.8,0l0,10.3l-2.9,0l-0.4,-2.4c-1.1,1.2 -2.7,2.9 -6.5,2.9c-5.1,0 -9.7,-3.3 -9.7,-10c0,-5.2 3.2,-10.1 10.2,-10.1l0.1,0c6.4,0 9,3.8 9.2,6.4l-4.5,0c0,-0.7 -1.5,-3.1 -4.6,-3.1c-3.1,0 -6,2 -6,6.9c0,5.2 3.1,6.6 6.1,6.6c1,0 4.2,-0.3 5.1,-4.2l-4.9,0l0,-3.3Z" style="fill:#fff;fill-rule:nonzero;"/><path d="M243.8,242c-7.2,-1.1 -44.4,0.2 -57.3,10.7c-79.4,64.7 -105.9,148.2 -110.5,221.1c0,0 -23.4,-43.3 -53.7,-67.1c-6.8,-5.3 -12,-5.5 -18.8,1.2c-1.2,1.2 -2.4,2.3 -3.5,3.5l0,19l65.7,69.7l23,0c7,0 10,-12.8 11.1,-18.1c6.9,-35.9 16.4,-129.9 124.1,-211.7c7.2,-5.5 35.2,-26 19.9,-28.3" style="fill:#fff;"/><path d="M255.9,462l-4.5,0l0,11.6l-4.4,0l0,-11.6l-4.3,0l0,-3l13.3,0l0,3l-0.1,0Zm12.7,5.8l3.6,-8.8l5.9,0l0,14.6l-4.1,0l0,-9.9l-0.1,0l-3.8,9.9l-3.2,0l-3.8,-9.9l-0.1,0l0,9.9l-4.1,0l0,-14.6l5.9,0l3.8,8.8Z" style="fill:#fff;fill-rule:nonzero;"/><path d="M238.5,333.1c-2.3,-1.3 -5.2,-0.3 -6.4,2.2c-1.2,2.5 -0.4,5.6 1.9,6.9c2.3,1.3 5.2,0.3 6.4,-2.2c1.2,-2.5 0.4,-5.6 -1.9,-6.9" style="fill:#fff;fill-rule:nonzero;"/><path d="M265,309.4c-0.3,-1.1 -0.8,-2.1 -2,-2.5c-0.6,-0.2 -1.3,-0.3 -1.9,-0.2c-33.7,4.8 -64.1,27.8 -73.7,61c-1.4,5 -2.8,10.1 -3.5,15.2c-0.7,4.8 -1.1,9.7 -1.3,14.6c-0.2,4.5 -0.1,9.1 0.2,13.6c0.3,4.2 0.7,8.4 0.9,12.7c0.1,4.6 0.1,9.8 -4.4,12.6c-15.6,9.6 -55.4,17.9 -54.3,23c1.1,4.8 17.5,3.2 20.6,3.1c8.7,-0.2 17.4,-3.2 26.2,-2c4.5,0.7 8.2,2.4 11.3,5.9c2.5,2.8 5.6,10.5 10.6,8.5c7.4,-3 2.3,-22 -1.6,-33.7c27.7,-9.3 48.5,-18 61.9,-43.4c7.2,-13.6 11.6,-29.2 13.1,-44.5c0.3,-3.4 0.5,-6.8 0.6,-10.2c0.1,-9 0,-18.6 -1.3,-27.6c-0.3,-1.9 -0.6,-3.7 -1.1,-5.6c-0.3,-0.2 -0.3,-0.3 -0.3,-0.5m-75.9,116.1c1.4,-17.6 6.4,-44.8 16.5,-65.2c0.7,-1.4 1.4,-2.7 2.1,-4.1c1.1,3.9 3.8,7.3 7.8,9.1c6,2.7 12.9,1 16.9,-3.9c-1,6.2 2.1,12.6 8.1,15.3c3.8,1.7 7.9,1.7 11.5,0.1c-1.5,4 -3.2,7.9 -5.2,11.6c-11.2,21.1 -32.4,41.5 -55.5,50.9c0,0 -0.8,-2.1 -0.8,-2.3c-1.8,-6.1 -1.4,-11.5 -1.4,-11.5m65.1,-54.6c-3.4,1.2 -7.2,1.1 -10.7,-0.5c-5.7,-2.6 -8.9,-8.5 -8.3,-14.4c0.1,-0.3 0.2,-0.7 0.2,-1l-0.1,0.1l0,-0.1c-0.2,0.3 -0.4,0.5 -0.6,0.8c-4.1,4.4 -10.6,5.9 -16.4,3.3c-3.7,-1.7 -6.3,-4.7 -7.5,-8.3c10.4,-16.6 25,-29.3 45.8,-37.4c1.7,-0.7 4.9,-2.2 5.5,3.5c0.7,8.2 -1,32.1 -7.9,54" style="fill:#fff;"/></g></svg>