<?xml version="1.0" encoding="UTF-8" standalone="no"?><!DOCTYPE svg PUBLIC "-//W3C//DTD SVG 1.1//EN" "http://www.w3.org/Graphics/SVG/1.1/DTD/svg11.dtd"><svg width="100%" height="100%" viewBox="0 0 14 18" version="1.1" xmlns="http://www.w3.org/2000/svg" xmlns:xlink="http://www.w3.org/1999/xlink" xml:space="preserve" xmlns:serif="http://www.serif.com/" style="fill-rule:evenodd;clip-rule:evenodd;stroke-linejoin:round;stroke-miterlimit:2;"><g><path d="M6.785,3.454c-3.747,0 -6.785,3.04 -6.785,6.787c0,3.751 3.038,6.79 6.785,6.79c3.752,0 6.792,-3.039 6.792,-6.79c0,-3.747 -3.04,-6.787 -6.792,-6.787m-0.014,13.069c-3.43,0 -6.222,-2.791 -6.222,-6.22c0,-3.433 2.792,-6.223 6.222,-6.223c3.431,0 6.222,2.79 6.222,6.223c0,3.429 -2.791,6.22 -6.222,6.22" style="fill:#007f4c;fill-rule:nonzero;"/><path d="M6.473,8.456c-0.985,0 -1.787,0.801 -1.787,1.786c0,0.982 0.802,1.783 1.787,1.783c0.985,0 1.789,-0.801 1.789,-1.783c0,-0.985 -0.804,-1.786 -1.789,-1.786" style="fill:#007f4c;fill-rule:nonzero;"/><path d="M6.771,4.889c-2.985,0 -5.412,2.43 -5.412,5.411c0,2.985 2.427,5.415 5.412,5.415c2.987,0 5.413,-2.43 5.413,-5.415c0,-2.981 -2.426,-5.411 -5.413,-5.411m3.772,8.275c-0.061,0.214 -0.256,0.341 -0.52,0.341c-0.076,0 -0.152,-0.011 -0.238,-0.028c-0.498,-0.111 -0.963,-0.349 -1.387,-0.7c-0.582,0.486 -1.327,0.752 -2.097,0.752c-1.813,0 -3.288,-1.475 -3.288,-3.287c0,-1.814 1.475,-3.289 3.288,-3.289c0.521,0 1.074,0.183 1.685,0.554c0.106,-0.267 0.524,-0.526 0.84,-0.526c0.274,0 0.475,0.123 0.682,0.332c0.209,0.209 0.279,0.489 0.277,0.789l-0.002,3.313c-0.008,0.148 0.014,0.329 0.031,0.439c0.055,0.306 0.241,0.585 0.506,0.746c0.188,0.118 0.282,0.355 0.223,0.564" style="fill:#007f4c;fill-rule:nonzero;"/><path d="M8.948,2.375c-0.654,0 -1.186,-0.532 -1.186,-1.187c0,-0.654 0.532,-1.188 1.186,-1.188c0.656,0 1.189,0.534 1.189,1.188c0,0.655 -0.533,1.187 -1.189,1.187" style="fill:#007f4c;fill-rule:nonzero;"/></g></svg>